<!-- Generated by IcoMoon.io -->
<svg version="1.1" xmlns="http://www.w3.org/2000/svg" width="1024" height="1024" viewBox="0 0 1024 1024">
<title></title>
<g id="icomoon-ignore">
</g>
<path fill="#000" d="M1024 512c0 282.795-229.205 512-512 512s-512-229.205-512-512 229.205-512 512-512 512 229.205 512 512zM735.872 189.397c-52.053 1.792-97.408 30.507-131.2 70.144-37.461 43.52-62.336 95.104-80.256 147.669-32.128-26.197-56.832-60.331-108.331-75.136-41.216-12.672-85.973-4.48-120.021 21.931-17.493 13.611-30.293 32.299-36.736 53.504-15.36 50.176 16.256 94.933 30.677 110.933l31.445 33.707c6.4 6.571 22.144 23.893 14.464 48.555-8.235 26.923-40.576 44.245-73.899 34.091-14.848-4.523-36.181-15.616-31.317-31.147 1.92-6.4 6.485-11.221 8.96-16.683 2.219-4.693 3.285-8.277 4.053-10.325 6.016-19.84-2.261-45.653-23.509-52.181-19.84-6.101-40.064-1.28-48 24.149-8.917 29.013 4.992 81.621 79.36 104.491 87.040 26.795 160.64-20.651 171.051-82.432 6.528-38.699-10.88-67.499-42.923-104.405l-26.112-28.885c-15.829-15.787-21.205-42.752-4.864-63.36 13.824-17.451 33.493-24.917 65.664-16.171 47.061 12.8 68.011 45.355 102.912 71.68-14.421 47.36-23.893 94.848-32.384 137.472l-5.248 31.829c-24.96 130.987-44.075 202.965-93.611 244.309-9.984 7.083-24.32 17.749-45.781 18.517-11.349 0.213-15.019-7.509-15.147-10.965-0.256-7.851 6.4-11.563 10.88-15.061 6.571-3.541 16.64-9.557 15.872-28.757-0.683-22.699-19.456-42.411-46.677-41.515-20.352 0.725-51.328 19.84-50.176 54.869 1.195 36.267 34.944 63.36 85.845 61.611 27.221-0.896 87.979-11.989 147.797-83.157 69.675-81.536 89.173-174.976 103.851-243.456l16.341-90.283c9.088 1.024 18.816 1.792 29.44 2.048 86.699 1.877 130.091-43.093 130.731-75.776 0.427-19.797-12.971-39.296-31.744-38.827-16.469 0.384-30.635 11.861-34.389 27.904-4.011 18.261 27.563 34.688 2.901 50.731-17.493 11.349-48.896 19.285-93.184 12.8l8.021-44.459c16.469-84.309 36.651-188.032 113.536-190.592 5.632-0.299 26.112 0.256 26.581 13.781 0.128 4.48-0.939 5.717-6.272 16-4.907 6.613-7.424 14.72-7.168 22.912 0.725 21.504 17.067 35.669 40.832 34.816 31.701-0.981 40.747-31.915 40.32-47.744-1.365-37.291-40.619-60.757-92.587-59.136z"></path>
</svg>
